<mxfile host="Electron" modified="2023-12-21T14:31:47.070Z" agent="Mozilla/5.0 (Macintosh; Intel Mac OS X 10_15_7) AppleWebKit/537.36 (KHTML, like Gecko) draw.io/22.1.11 Chrome/114.0.5735.289 Electron/25.9.8 Safari/537.36" etag="Art3yYxkD91wur-b51Cf" version="22.1.11" type="device">
  <diagram name="Page-1" id="xbJAehff-mAYkZwgaJYu">
    <mxGraphModel dx="2000" dy="1140" grid="1" gridSize="10" guides="1" tooltips="1" connect="1" arrows="1" fold="1" page="1" pageScale="1" pageWidth="1169" pageHeight="827" math="0" shadow="0">
      <root>
        <mxCell id="0" />
        <mxCell id="1" parent="0" />
        <mxCell id="Yw0m5sHGn3Raxbk1T0Mf-8" style="edgeStyle=orthogonalEdgeStyle;rounded=0;orthogonalLoop=1;jettySize=auto;html=1;entryX=1;entryY=0.5;entryDx=0;entryDy=0;" edge="1" parent="1" source="Yw0m5sHGn3Raxbk1T0Mf-4" target="Yw0m5sHGn3Raxbk1T0Mf-6">
          <mxGeometry relative="1" as="geometry" />
        </mxCell>
        <mxCell id="Yw0m5sHGn3Raxbk1T0Mf-9" style="edgeStyle=orthogonalEdgeStyle;rounded=0;orthogonalLoop=1;jettySize=auto;html=1;entryX=0;entryY=0.5;entryDx=0;entryDy=0;" edge="1" parent="1" source="Yw0m5sHGn3Raxbk1T0Mf-4" target="Yw0m5sHGn3Raxbk1T0Mf-7">
          <mxGeometry relative="1" as="geometry" />
        </mxCell>
        <mxCell id="Yw0m5sHGn3Raxbk1T0Mf-51" style="edgeStyle=orthogonalEdgeStyle;rounded=0;orthogonalLoop=1;jettySize=auto;html=1;exitX=0.5;exitY=1;exitDx=0;exitDy=0;entryX=1;entryY=0.25;entryDx=0;entryDy=0;strokeColor=#FF0000;" edge="1" parent="1" source="Yw0m5sHGn3Raxbk1T0Mf-4" target="Yw0m5sHGn3Raxbk1T0Mf-48">
          <mxGeometry relative="1" as="geometry">
            <Array as="points">
              <mxPoint x="1050" y="290" />
              <mxPoint x="1050" y="725" />
            </Array>
          </mxGeometry>
        </mxCell>
        <mxCell id="Yw0m5sHGn3Raxbk1T0Mf-4" value="if" style="rhombus;whiteSpace=wrap;html=1;" vertex="1" parent="1">
          <mxGeometry x="550" y="210" width="80" height="80" as="geometry" />
        </mxCell>
        <mxCell id="Yw0m5sHGn3Raxbk1T0Mf-33" style="edgeStyle=orthogonalEdgeStyle;rounded=0;orthogonalLoop=1;jettySize=auto;html=1;entryX=0.5;entryY=0;entryDx=0;entryDy=0;" edge="1" parent="1" source="Yw0m5sHGn3Raxbk1T0Mf-6" target="Yw0m5sHGn3Raxbk1T0Mf-32">
          <mxGeometry relative="1" as="geometry" />
        </mxCell>
        <mxCell id="Yw0m5sHGn3Raxbk1T0Mf-6" value="if circle" style="rounded=1;whiteSpace=wrap;html=1;" vertex="1" parent="1">
          <mxGeometry x="250" y="220" width="120" height="60" as="geometry" />
        </mxCell>
        <mxCell id="Yw0m5sHGn3Raxbk1T0Mf-38" style="edgeStyle=orthogonalEdgeStyle;rounded=0;orthogonalLoop=1;jettySize=auto;html=1;" edge="1" parent="1" source="Yw0m5sHGn3Raxbk1T0Mf-7" target="Yw0m5sHGn3Raxbk1T0Mf-35">
          <mxGeometry relative="1" as="geometry" />
        </mxCell>
        <mxCell id="Yw0m5sHGn3Raxbk1T0Mf-7" value="if&amp;nbsp;rectangle" style="rounded=1;whiteSpace=wrap;html=1;" vertex="1" parent="1">
          <mxGeometry x="810" y="220" width="120" height="60" as="geometry" />
        </mxCell>
        <mxCell id="Yw0m5sHGn3Raxbk1T0Mf-27" value="" style="edgeStyle=orthogonalEdgeStyle;rounded=0;orthogonalLoop=1;jettySize=auto;html=1;" edge="1" parent="1" source="Yw0m5sHGn3Raxbk1T0Mf-10" target="Yw0m5sHGn3Raxbk1T0Mf-26">
          <mxGeometry relative="1" as="geometry" />
        </mxCell>
        <mxCell id="Yw0m5sHGn3Raxbk1T0Mf-10" value="try" style="rhombus;whiteSpace=wrap;html=1;" vertex="1" parent="1">
          <mxGeometry x="270" y="430" width="80" height="80" as="geometry" />
        </mxCell>
        <mxCell id="Yw0m5sHGn3Raxbk1T0Mf-44" style="edgeStyle=orthogonalEdgeStyle;rounded=0;orthogonalLoop=1;jettySize=auto;html=1;entryX=0.5;entryY=0;entryDx=0;entryDy=0;" edge="1" parent="1" source="Yw0m5sHGn3Raxbk1T0Mf-15" target="Yw0m5sHGn3Raxbk1T0Mf-18">
          <mxGeometry relative="1" as="geometry" />
        </mxCell>
        <mxCell id="Yw0m5sHGn3Raxbk1T0Mf-15" value="Calculate" style="whiteSpace=wrap;html=1;" vertex="1" parent="1">
          <mxGeometry x="530" y="520" width="120" height="60" as="geometry" />
        </mxCell>
        <mxCell id="Yw0m5sHGn3Raxbk1T0Mf-49" style="edgeStyle=orthogonalEdgeStyle;rounded=0;orthogonalLoop=1;jettySize=auto;html=1;entryX=0.5;entryY=0;entryDx=0;entryDy=0;" edge="1" parent="1" source="Yw0m5sHGn3Raxbk1T0Mf-18" target="Yw0m5sHGn3Raxbk1T0Mf-48">
          <mxGeometry relative="1" as="geometry" />
        </mxCell>
        <mxCell id="Yw0m5sHGn3Raxbk1T0Mf-18" value="Print result&lt;br&gt;" style="whiteSpace=wrap;html=1;" vertex="1" parent="1">
          <mxGeometry x="530" y="620" width="120" height="60" as="geometry" />
        </mxCell>
        <mxCell id="Yw0m5sHGn3Raxbk1T0Mf-25" style="edgeStyle=orthogonalEdgeStyle;rounded=0;orthogonalLoop=1;jettySize=auto;html=1;entryX=0.5;entryY=0;entryDx=0;entryDy=0;" edge="1" parent="1" source="Yw0m5sHGn3Raxbk1T0Mf-22" target="Yw0m5sHGn3Raxbk1T0Mf-4">
          <mxGeometry relative="1" as="geometry" />
        </mxCell>
        <mxCell id="Yw0m5sHGn3Raxbk1T0Mf-50" style="edgeStyle=orthogonalEdgeStyle;rounded=0;orthogonalLoop=1;jettySize=auto;html=1;entryX=1;entryY=0.5;entryDx=0;entryDy=0;strokeColor=#FF0000;" edge="1" parent="1" source="Yw0m5sHGn3Raxbk1T0Mf-22" target="Yw0m5sHGn3Raxbk1T0Mf-48">
          <mxGeometry relative="1" as="geometry">
            <Array as="points">
              <mxPoint x="1070" y="150" />
              <mxPoint x="1070" y="740" />
            </Array>
          </mxGeometry>
        </mxCell>
        <mxCell id="Yw0m5sHGn3Raxbk1T0Mf-22" value="Create variables &amp;amp;&amp;amp;&lt;br&gt;&amp;nbsp;Get user input" style="shape=parallelogram;perimeter=parallelogramPerimeter;whiteSpace=wrap;html=1;fixedSize=1;" vertex="1" parent="1">
          <mxGeometry x="515" y="120" width="150" height="60" as="geometry" />
        </mxCell>
        <mxCell id="Yw0m5sHGn3Raxbk1T0Mf-24" style="edgeStyle=orthogonalEdgeStyle;rounded=0;orthogonalLoop=1;jettySize=auto;html=1;entryX=0.5;entryY=0;entryDx=0;entryDy=0;" edge="1" parent="1" source="Yw0m5sHGn3Raxbk1T0Mf-23" target="Yw0m5sHGn3Raxbk1T0Mf-22">
          <mxGeometry relative="1" as="geometry" />
        </mxCell>
        <mxCell id="Yw0m5sHGn3Raxbk1T0Mf-23" value="Start" style="rounded=1;whiteSpace=wrap;html=1;" vertex="1" parent="1">
          <mxGeometry x="530" y="20" width="120" height="60" as="geometry" />
        </mxCell>
        <mxCell id="Yw0m5sHGn3Raxbk1T0Mf-42" style="edgeStyle=orthogonalEdgeStyle;rounded=0;orthogonalLoop=1;jettySize=auto;html=1;entryX=0;entryY=0.5;entryDx=0;entryDy=0;" edge="1" parent="1" source="Yw0m5sHGn3Raxbk1T0Mf-26" target="Yw0m5sHGn3Raxbk1T0Mf-29">
          <mxGeometry relative="1" as="geometry" />
        </mxCell>
        <mxCell id="Yw0m5sHGn3Raxbk1T0Mf-47" style="edgeStyle=orthogonalEdgeStyle;rounded=0;orthogonalLoop=1;jettySize=auto;html=1;entryX=0;entryY=0.5;entryDx=0;entryDy=0;" edge="1" parent="1" source="Yw0m5sHGn3Raxbk1T0Mf-26" target="Yw0m5sHGn3Raxbk1T0Mf-15">
          <mxGeometry relative="1" as="geometry">
            <Array as="points">
              <mxPoint x="440" y="550" />
            </Array>
          </mxGeometry>
        </mxCell>
        <mxCell id="Yw0m5sHGn3Raxbk1T0Mf-26" value="if" style="rhombus;whiteSpace=wrap;html=1;" vertex="1" parent="1">
          <mxGeometry x="400" y="430" width="80" height="80" as="geometry" />
        </mxCell>
        <mxCell id="Yw0m5sHGn3Raxbk1T0Mf-29" value="Raise" style="whiteSpace=wrap;html=1;" vertex="1" parent="1">
          <mxGeometry x="530" y="440" width="120" height="60" as="geometry" />
        </mxCell>
        <mxCell id="Yw0m5sHGn3Raxbk1T0Mf-34" style="edgeStyle=orthogonalEdgeStyle;rounded=0;orthogonalLoop=1;jettySize=auto;html=1;entryX=0.5;entryY=0;entryDx=0;entryDy=0;" edge="1" parent="1" source="Yw0m5sHGn3Raxbk1T0Mf-32" target="Yw0m5sHGn3Raxbk1T0Mf-10">
          <mxGeometry relative="1" as="geometry" />
        </mxCell>
        <mxCell id="Yw0m5sHGn3Raxbk1T0Mf-32" value="Get user input" style="shape=parallelogram;perimeter=parallelogramPerimeter;whiteSpace=wrap;html=1;fixedSize=1;" vertex="1" parent="1">
          <mxGeometry x="250" y="320" width="120" height="60" as="geometry" />
        </mxCell>
        <mxCell id="Yw0m5sHGn3Raxbk1T0Mf-37" style="edgeStyle=orthogonalEdgeStyle;rounded=0;orthogonalLoop=1;jettySize=auto;html=1;" edge="1" parent="1" source="Yw0m5sHGn3Raxbk1T0Mf-35" target="Yw0m5sHGn3Raxbk1T0Mf-36">
          <mxGeometry relative="1" as="geometry" />
        </mxCell>
        <mxCell id="Yw0m5sHGn3Raxbk1T0Mf-35" value="Get user input" style="shape=parallelogram;perimeter=parallelogramPerimeter;whiteSpace=wrap;html=1;fixedSize=1;" vertex="1" parent="1">
          <mxGeometry x="810" y="330" width="120" height="60" as="geometry" />
        </mxCell>
        <mxCell id="Yw0m5sHGn3Raxbk1T0Mf-41" style="edgeStyle=orthogonalEdgeStyle;rounded=0;orthogonalLoop=1;jettySize=auto;html=1;entryX=1;entryY=0.5;entryDx=0;entryDy=0;" edge="1" parent="1" source="Yw0m5sHGn3Raxbk1T0Mf-36" target="Yw0m5sHGn3Raxbk1T0Mf-40">
          <mxGeometry relative="1" as="geometry" />
        </mxCell>
        <mxCell id="Yw0m5sHGn3Raxbk1T0Mf-36" value="try" style="rhombus;whiteSpace=wrap;html=1;" vertex="1" parent="1">
          <mxGeometry x="830" y="430" width="80" height="80" as="geometry" />
        </mxCell>
        <mxCell id="Yw0m5sHGn3Raxbk1T0Mf-45" style="edgeStyle=orthogonalEdgeStyle;rounded=0;orthogonalLoop=1;jettySize=auto;html=1;entryX=1;entryY=0.5;entryDx=0;entryDy=0;" edge="1" parent="1" source="Yw0m5sHGn3Raxbk1T0Mf-40" target="Yw0m5sHGn3Raxbk1T0Mf-29">
          <mxGeometry relative="1" as="geometry" />
        </mxCell>
        <mxCell id="Yw0m5sHGn3Raxbk1T0Mf-46" style="edgeStyle=orthogonalEdgeStyle;rounded=0;orthogonalLoop=1;jettySize=auto;html=1;entryX=1;entryY=0.5;entryDx=0;entryDy=0;" edge="1" parent="1" source="Yw0m5sHGn3Raxbk1T0Mf-40" target="Yw0m5sHGn3Raxbk1T0Mf-15">
          <mxGeometry relative="1" as="geometry">
            <Array as="points">
              <mxPoint x="740" y="550" />
            </Array>
          </mxGeometry>
        </mxCell>
        <mxCell id="Yw0m5sHGn3Raxbk1T0Mf-40" value="if" style="rhombus;whiteSpace=wrap;html=1;" vertex="1" parent="1">
          <mxGeometry x="700" y="430" width="80" height="80" as="geometry" />
        </mxCell>
        <mxCell id="Yw0m5sHGn3Raxbk1T0Mf-48" value="Stop" style="whiteSpace=wrap;html=1;" vertex="1" parent="1">
          <mxGeometry x="530" y="710" width="120" height="60" as="geometry" />
        </mxCell>
      </root>
    </mxGraphModel>
  </diagram>
</mxfile>
